<svg width="1000" height="1800" viewBox="0 0 1000 1800" fill="none" xmlns="http://www.w3.org/2000/svg">
<path fill-rule="evenodd" clip-rule="evenodd" d="M386.401 466.293C407.576 467.022 405.969 553.95 471.439 503.413C506.973 476.061 568.793 481.272 613.819 454.44C658.844 427.609 713.581 390.983 703.554 332.579C693.502 274.175 724.898 226.322 724.606 246.875L734.537 341.123C836.027 242.395 767.661 97.5578 818.236 0.23578C827.119 -6.14642 836.271 118.658 839.678 178.051C839.678 194.984 827.265 222.858 856.228 226.504C875.577 226.843 893.247 214.86 901.254 196.026C924.375 155.649 920.481 109.28 925.592 65.7768C927.053 53.2729 927.296 39.727 928.269 28.2651C929.243 16.8032 943.822 -5.78214 947.74 16.9072L952.608 160.338C987.412 132.204 976.751 38.8416 993.496 66.8191C1011.34 125.327 991.622 189.461 944.82 225.202C835.784 319.241 744.272 437.508 613.088 500.809C587.533 513.052 586.56 528.943 595.321 554.471C618.443 622.722 609.924 681.333 549.809 726.66C524.059 746.067 512.303 780.583 520.359 813.146C537.153 907.185 560.031 996.797 615.035 1076.77C716.769 1224.47 702.167 1409.43 583.882 1544.1C556.575 1571.85 538.589 1608.5 532.772 1648.3C530.338 1668.28 525.008 1687.69 516.952 1705.87C500.645 1743.9 490.91 1797.31 445.884 1799.91C400.858 1802.52 397.208 1746.51 382.614 1712.12C350.295 1631.45 309.468 1554.97 260.923 1484.19C179.633 1369.31 174.522 1244.27 209.812 1112.46C228.066 1044.73 217.357 1024.93 155.051 1043.17C92.745 1061.4 63.539 1021.54 40.9044 981.688C18.2697 941.832 50.3963 910.051 80.0891 881.396C166.977 797.516 166.733 779.281 91.2847 675.082C65.7294 639.654 42.6081 602.403 17.0529 566.193C9.02128 554.471 -7.28546 543.53 3.66677 528.161C14.619 512.791 30.9256 518.522 43.3382 524.774C98.8879 555.2 157.198 579.479 217.357 597.193C153.347 497.161 49.1795 436.726 56.2376 310.645C56.5978 301.918 61.8257 289.571 70.1104 292.15C80.2254 292.593 118.787 390.618 166.003 367.694C213.22 344.77 190.342 282.772 176.956 237.445C163.57 192.118 145.316 148.354 152.617 98.8598C157.242 92.0869 160.88 89.0911 165.952 98.964C167.232 102.715 167.707 103.549 168.68 105.633C182.553 135.33 183.283 186.648 219.061 185.085C248.267 183.782 243.399 132.986 256.298 105.112C261.044 93.9369 262.536 81.9278 268.711 70.7264C280.929 50.6941 278.191 66.2717 282.34 99.902C286.492 133.558 287.208 158.254 273.822 193.942C235.124 298.141 191.315 405.466 234.394 523.211C244.95 550.121 263.865 572.315 287.938 585.991C322.499 609.436 347.567 588.336 371.662 574.79C407.43 554.732 376.123 493.436 376.123 493.436C376.123 493.436 359.478 464.339 386.401 466.293Z" fill="white"/>
</svg>
